<svg width="60" height="60" viewBox="0 0 60 60" fill="none" xmlns="http://www.w3.org/2000/svg">
<path d="M12.5 15C12.5 9.47715 16.9771 5 22.5 5H37.5C43.0228 5 47.5 9.47715 47.5 15C47.5 17.9867 46.1905 20.6677 44.1145 22.5C46.1905 24.3324 47.5 27.0133 47.5 30C47.5 35.5228 43.0228 40 37.5 40C35.6785 40 33.9708 39.513 32.5 38.6623V45C32.5 50.5228 28.0227 55 22.5 55C16.9771 55 12.5 50.5228 12.5 45C12.5 42.0132 13.8094 39.3322 15.8854 37.5C13.8094 35.6677 12.5 32.9867 12.5 30C12.5 27.0133 13.8094 24.3324 15.8854 22.5C13.8094 20.6677 12.5 17.9867 12.5 15ZM27.5 25H22.5C19.7386 25 17.5 27.2385 17.5 30C17.5 32.7615 19.7386 35 22.5 35H27.5V25ZM32.5 30C32.5 32.7615 34.7385 35 37.5 35C40.2615 35 42.5 32.7615 42.5 30C42.5 27.2385 40.2615 25 37.5 25C34.7385 25 32.5 27.2385 32.5 30ZM37.5 20C40.2615 20 42.5 17.7614 42.5 15C42.5 12.2386 40.2615 10 37.5 10H32.5V20H37.5ZM22.5 10C19.7386 10 17.5 12.2386 17.5 15C17.5 17.7614 19.7386 20 22.5 20H27.5V10H22.5ZM27.5 40H22.5C19.7386 40 17.5 42.2385 17.5 45C17.5 47.7615 19.7386 50 22.5 50C25.2615 50 27.5 47.7615 27.5 45V40Z" fill="#DEDEDE"/>
</svg>
