<svg width="80" height="80" viewBox="0 0 80 80" fill="none" xmlns="http://www.w3.org/2000/svg">
<path d="M40.0033 6.6665C21.5866 6.6665 6.66992 21.5832 6.66992 39.9998C6.66992 54.7498 16.2116 67.2082 29.4616 71.6248C31.1283 71.9165 31.7533 70.9165 31.7533 70.0415C31.7533 69.2498 31.7116 66.6248 31.7116 63.8332C23.3366 65.3748 21.1699 61.7915 20.5033 59.9165C20.1283 58.9582 18.5033 55.9998 17.0866 55.2082C15.9199 54.5832 14.2533 53.0415 17.0449 52.9998C19.6699 52.9582 21.5449 55.4165 22.1699 56.4165C25.1699 61.4582 29.9616 60.0415 31.8783 59.1665C32.1699 56.9998 33.0449 55.5415 34.0033 54.7082C26.5866 53.8748 18.8366 50.9998 18.8366 38.2498C18.8366 34.6248 20.1283 31.6248 22.2533 29.2915C21.9199 28.4582 20.7533 25.0415 22.5866 20.4582C22.5866 20.4582 25.3783 19.5832 31.7533 23.8748C34.42 23.1248 37.2533 22.7498 40.0867 22.7498C42.92 22.7498 45.7533 23.1248 48.42 23.8748C54.795 19.5415 57.5867 20.4582 57.5867 20.4582C59.42 25.0415 58.2533 28.4582 57.92 29.2915C60.045 31.6248 61.3367 34.5832 61.3367 38.2498C61.3367 51.0415 53.545 53.8748 46.1283 54.7082C47.3367 55.7498 48.3783 57.7498 48.3783 60.8748C48.3783 65.3332 48.3367 68.9165 48.3367 70.0415C48.3367 70.9165 48.9617 71.9582 50.6283 71.6248C64.1967 67.0442 73.333 54.3208 73.3367 39.9998C73.3367 21.5832 58.42 6.6665 40.0033 6.6665Z" fill="#DEDEDE"/>
</svg>
