<svg width="80" height="80" viewBox="0 0 80 80" fill="none" xmlns="http://www.w3.org/2000/svg">
<path d="M61.1207 61.13H52.2357V47.2073C52.2357 43.8873 52.1684 39.615 47.6057 39.615C42.9734 39.615 42.2657 43.2277 42.2657 46.9623V61.13H33.3807V32.5H41.9157V36.4023H42.0307C43.2234 34.1523 46.1234 31.7775 50.4557 31.7775C59.4584 31.7775 61.1234 37.7027 61.1234 45.415L61.1207 61.13ZM23.3458 28.5825C20.4858 28.5825 18.1883 26.2675 18.1883 23.42C18.1883 20.575 20.4883 18.2625 23.3458 18.2625C26.1958 18.2625 28.5058 20.575 28.5058 23.42C28.5058 26.2675 26.1933 28.5825 23.3458 28.5825ZM27.8008 61.13H18.8908V32.5H27.8008V61.13ZM65.5657 10H14.4308C11.9833 10 10.0033 11.935 10.0033 14.3225V65.6777C10.0033 68.0673 11.9833 70 14.4308 70H65.5584C68.0034 70 70.0034 68.0673 70.0034 65.6777V14.3225C70.0034 11.935 68.0034 10 65.5584 10H65.5657Z" fill="#DEDEDE"/>
</svg>
