<svg width="50" height="50" viewBox="0 0 50 50" fill="none" xmlns="http://www.w3.org/2000/svg">
<path d="M25 43.5405L35.3119 33.2284C41.0071 27.5334 41.0071 18.2997 35.3119 12.6045C29.6169 6.90938 20.3832 6.90938 14.688 12.6045C8.99288 18.2997 8.99288 27.5334 14.688 33.2284L25 43.5405ZM25 49.433L11.7417 36.1748C4.41942 28.8523 4.41942 16.9806 11.7417 9.65825C19.0641 2.33592 30.9358 2.33592 38.2583 9.65825C45.5806 16.9806 45.5806 28.8523 38.2583 36.1748L25 49.433ZM25 27.0832C27.3012 27.0832 29.1667 25.2178 29.1667 22.9165C29.1667 20.6153 27.3012 18.7498 25 18.7498C22.6987 18.7498 20.8333 20.6153 20.8333 22.9165C20.8333 25.2178 22.6987 27.0832 25 27.0832ZM25 31.2498C20.3976 31.2498 16.6667 27.5188 16.6667 22.9165C16.6667 18.3141 20.3976 14.5832 25 14.5832C29.6023 14.5832 33.3333 18.3141 33.3333 22.9165C33.3333 27.5188 29.6023 31.2498 25 31.2498Z" fill="#3EF050"/>
</svg>
