<svg width="50" height="50" viewBox="0 0 50 50" fill="none" xmlns="http://www.w3.org/2000/svg">
<path d="M14.5833 8.33317V41.6665H35.4166V8.33317H14.5833ZM12.5 4.1665H37.5C38.6506 4.1665 39.5833 5.09925 39.5833 6.24984V43.7498C39.5833 44.9005 38.6506 45.8332 37.5 45.8332H12.5C11.3494 45.8332 10.4166 44.9005 10.4166 43.7498V6.24984C10.4166 5.09925 11.3494 4.1665 12.5 4.1665ZM25 35.4165C26.1506 35.4165 27.0833 36.3492 27.0833 37.4998C27.0833 38.6505 26.1506 39.5832 25 39.5832C23.8493 39.5832 22.9166 38.6505 22.9166 37.4998C22.9166 36.3492 23.8493 35.4165 25 35.4165Z" fill="#3EF050"/>
</svg>
