<svg width="50" height="50" viewBox="0 0 50 50" fill="none" xmlns="http://www.w3.org/2000/svg">
<g clip-path="url(#clip0_416_30)">
<path d="M23.6931 18.9792C24.102 18.3764 24.5496 18.2998 24.9128 18.2998C25.2759 18.2998 25.8808 18.3764 26.2899 18.9792C29.5129 23.4062 34.8331 32.225 38.7576 38.7302C41.3169 42.9726 43.2826 46.2309 43.6859 46.6455C45.1998 48.2021 47.2761 47.232 48.4826 45.4664C49.6703 43.7281 50 42.5075 50 41.2053C50 40.3184 32.792 8.31473 31.059 5.65082C29.3924 3.08859 28.8496 2.44141 25.9972 2.44141H23.8626C21.0187 2.44141 20.6077 3.08859 18.9409 5.65082C17.2081 8.31473 0 40.3184 0 41.2053C0 42.5075 0.329743 43.7281 1.51754 45.4664C2.72403 47.232 4.80029 48.2021 6.31416 46.6455C6.7175 46.2309 8.68319 42.9726 11.2425 38.7302C15.1669 32.225 20.4701 23.4062 23.6931 18.9792Z" fill="white"/>
</g>
<defs>
<clipPath id="clip0_416_30">
<rect width="50" height="50" fill="white"/>
</clipPath>
</defs>
</svg>
