<svg width="50" height="50" viewBox="0 0 50 50" fill="none" xmlns="http://www.w3.org/2000/svg">
<g clip-path="url(#clip0_422_97)">
<path d="M9.29375 8.76407C10.8406 10.025 11.4266 9.93594 14.3469 9.74063L41.8781 8.08907C42.4641 8.08907 41.9766 7.50313 41.7797 7.40469L37.2062 4.1C36.3359 3.41563 35.1641 2.64375 32.925 2.82969L6.27344 4.78282C5.29687 4.87188 5.10156 5.36094 5.49219 5.75157L9.29375 8.76407ZM10.9453 15.1859V44.1484C10.9453 45.7031 11.7188 46.2891 13.4688 46.1906L43.7266 44.4406C45.4766 44.3422 45.6797 43.2766 45.6797 42.0078V13.2406C45.6797 11.9703 45.1906 11.2953 44.1172 11.3938L12.5016 13.2406C11.3297 13.3391 10.9469 13.9156 10.9469 15.1781L10.9453 15.1859ZM40.8125 16.7313C41.0078 17.6109 40.8125 18.4813 39.9328 18.5875L38.4766 18.8813V40.2594C37.2062 40.9438 36.0438 41.3344 35.075 41.3344C33.5125 41.3344 33.1219 40.8453 31.9578 39.3891L22.4203 24.4156V38.9016L25.4391 39.5859C25.4391 39.5859 25.4391 41.3359 23.0063 41.3359L16.2922 41.7266C16.0969 41.3359 16.2922 40.3594 16.9766 40.1719L18.7266 39.6828V20.5344L16.2938 20.3391C16.0984 19.4594 16.5875 18.1984 17.9453 18.1016L25.1469 17.6125L35.075 32.7813V19.3609L32.5437 19.0672C32.3484 18.0016 33.1219 17.2203 34.0984 17.1297L40.8125 16.7313ZM4.03594 2.15625L31.7625 0.114067C35.1641 -0.179683 36.0438 0.0156291 38.1828 1.57032L47.0375 7.79532C48.4938 8.86094 48.9828 9.15469 48.9828 10.3188V44.4422C48.9828 46.5828 48.2016 47.8438 45.4828 48.0391L13.2719 49.9844C11.2375 50.0828 10.2609 49.7891 9.18594 48.4297L2.66719 39.9656C1.50313 38.4109 1.01562 37.2469 1.01562 35.8891V5.55938C1.01562 3.80938 1.79688 2.35313 4.03437 2.15782L4.03594 2.15625Z" fill="white"/>
</g>
<defs>
<clipPath id="clip0_422_97">
<rect width="50" height="50" fill="white"/>
</clipPath>
</defs>
</svg>
