<svg width="50" height="52" viewBox="0 0 50 52" fill="none" xmlns="http://www.w3.org/2000/svg">
<g clip-path="url(#clip0_418_220)">
<path d="M29.2237 50.7503C27.912 52.4074 25.2524 51.4994 25.2208 49.3835L24.7587 18.436H45.5016C49.2588 18.436 51.3542 22.7894 49.0179 25.7412L29.2237 50.7503Z" fill="url(#paint0_linear_418_220)"/>
<path d="M29.2237 50.7503C27.912 52.4074 25.2524 51.4994 25.2208 49.3835L24.7587 18.436H45.5016C49.2588 18.436 51.3542 22.7894 49.0179 25.7412L29.2237 50.7503Z" fill="url(#paint1_linear_418_220)" fill-opacity="0.2"/>
<path d="M20.7877 0.953028C22.0994 -0.704254 24.759 0.203817 24.7906 2.31974L24.9931 33.2672H4.50973C0.752509 33.2672 -1.34296 28.9139 0.99339 25.962L20.7877 0.953028Z" fill="#3ECF8E"/>
</g>
<defs>
<linearGradient id="paint0_linear_418_220" x1="24.7587" y1="25.2979" x2="43.2118" y2="33.0125" gradientUnits="userSpaceOnUse">
<stop stop-color="#249361"/>
<stop offset="1" stop-color="#3ECF8E"/>
</linearGradient>
<linearGradient id="paint1_linear_418_220" x1="16.5853" y1="14.0714" x2="25.0347" y2="29.9264" gradientUnits="userSpaceOnUse">
<stop/>
<stop offset="1" stop-opacity="0"/>
</linearGradient>
<clipPath id="clip0_418_220">
<rect width="50" height="52" fill="white"/>
</clipPath>
</defs>
</svg>
